:FULLY-SPECIFIED
:FORCE-ALL-JOINTS-BE-3DOF
:DEGREES
951
root 1.0906 15.2614 32.7966 7.13283 -4.54165 365.197
lfemur 7.36608 -0.577399 4.31369
ltibia 0.407824 0 0
lfoot -30.6115 -14.9729 0
ltoes -33.6061 0 0
rfemur -31.3543 -14.4127 -8.43263
rtibia 46.6413 0 0
rfoot -21.0066 4.51653 0
rtoes -47.8192 0 0
lowerback -2.81772 -0.307475 0.511896
upperback -1.60905 -0.408744 -7.14462
thorax -0.160162 -0.244985 -7.75835
lowerneck -6.76946 0.804601 4.31669
upperneck 1.3323 0.608646 3.2364
head 1.53773 0.406404 0.308569
lclavicle -1.31241e-014 4.45356e-014 0
lhumerus -59.5512 -44.4811 113.011
lradius 55.1912 0 0
lwrist 26.1328 0 0
lhand 40.9287 25.0177 0
lfingers 7.12502 0 0
lthumb 63.1811 35.1255 0
rclavicle -1.31241e-014 4.45356e-014 0
rhumerus 6.42601 -36.295 0.0667943
rradius 24.6872 0 0
rwrist -14.1424 0 0
rhand -41.273 -52.2761 0
rfingers 7.12502 0 0
rthumb -14.1841 -802.173 0
952
root 1.07674 15.2523 32.7949 7.13672 -4.69836 365.199
lfemur 7.58919 -0.660878 4.45295
ltibia 0.118859 0 0
lfoot -30.6837 -14.9738 0
ltoes -33.8594 0 0
rfemur -31.4254 -14.4524 -8.41928
rtibia 46.5684 0 0
rfoot -21.197 4.68135 0
rtoes -48.1571 0 0
lowerback -2.82413 -0.300592 0.541251
upperback -1.59873 -0.398741 -7.14087
thorax -0.146514 -0.239749 -7.77116
lowerneck -6.76362 0.855945 4.38962
upperneck 1.30525 0.672903 3.22788
head 1.5265 0.438033 0.296096
lclavicle -1.29795e-014 4.30776e-014 0
lhumerus -59.5647 -44.5295 113.072
lradius 55.1524 0 0
lwrist 26.1826 0 0
lhand 40.8972 25.0487 0
lfingers 7.12502 0 0
lthumb 63.156 35.1969 0
rclavicle -1.29795e-014 4.30776e-014 0
rhumerus 6.65335 -36.2871 0.590237
rradius 24.2687 0 0
rwrist -14.1036 0 0
rhand -41.3349 -52.3545 0
rfingers 7.12502 0 0
rthumb -14.2428 -802.276 0
953
root 1.06472 15.2439 32.792 7.13244 -4.83666 365.196
lfemur 7.79022 -0.722005 4.57798
ltibia -0.135259 0 0
lfoot -30.7443 -14.9602 0
ltoes -34.0814 0 0
rfemur -31.496 -14.4916 -8.39783
rtibia 46.5244 0 0
rfoot -21.3708 4.82742 0
rtoes -48.4247 0 0
lowerback -2.82399 -0.295319 0.568172
upperback -1.58575 -0.391027 -7.13186
thorax -0.133693 -0.235581 -7.77691
lowerneck -6.75767 0.902468 4.4601
upperneck 1.27997 0.730819 3.22067
head 1.51616 0.466527 0.284171
lclavicle -1.2801e-014 4.15066e-014 0
lhumerus -59.5706 -44.5736 113.132
lradius 55.1174 0 0
lwrist 26.2215 0 0
lhand 40.853 25.0728 0
lfingers 7.12502 0 0
lthumb 63.12 35.2727 0
rclavicle -1.2801e-014 4.15066e-014 0
rhumerus 6.84021 -36.2292 1.04576
rradius 23.9189 0 0
rwrist -14.0575 0 0
rhand -41.3444 -52.3893 0
rfingers 7.12502 0 0
rthumb -14.2512 -802.332 0
954
root 1.05447 15.2361 32.7881 7.12044 -4.95742 365.188
lfemur 7.97019 -0.762009 4.68947
ltibia -0.356221 0 0
lfoot -30.794 -14.9327 0
ltoes -34.2735 0 0
rfemur -31.5658 -14.5305 -8.36876
rtibia 46.5078 0 0
rfoot -21.5288 4.95565 0
rtoes -48.6257 0 0
lowerback -2.81767 -0.291562 0.592752
upperback -1.57028 -0.385468 -7.11791
thorax -0.121662 -0.232418 -7.77599
lowerneck -6.75162 0.944387 4.52821
upperneck 1.2564 0.782676 3.21472
head 1.50669 0.492029 0.272776
lclavicle -1.25907e-014 3.9831e-014 0
lhumerus -59.5693 -44.6137 113.192
lradius 55.0859 0 0
lwrist 26.2502 0 0
lhand 40.7969 25.0906 0
lfingers 7.12502 0 0
lthumb 63.0738 35.3525 0
rclavicle -1.25907e-014 3.9831e-014 0
rhumerus 6.98867 -36.1243 1.43672
rradius 23.6345 0 0
rwrist -14.0046 0 0
rhand -41.3044 -52.3826 0
rfingers 7.12502 0 0
rthumb -14.212 -802.345 0
955
root 1.04589 15.2289 32.7832 7.10118 -5.06149 365.177
lfemur 8.13013 -0.78212 4.7881
ltibia -0.545723 0 0
lfoot -30.8333 -14.8923 0
ltoes -34.4374 0 0
rfemur -31.6349 -14.569 -8.33254
rtibia 46.517 0 0
rfoot -21.6717 5.06694 0
rtoes -48.7636 0 0
lowerback -2.80554 -0.28923 0.615087
upperback -1.55248 -0.381933 -7.09931
thorax -0.110381 -0.230201 -7.7688
lowerneck -6.74552 0.981916 4.59401
upperneck 1.23448 0.828759 3.20997
head 1.49806 0.51468 0.261892
lclavicle -1.23505e-014 3.80589e-014 0
lhumerus -59.5613 -44.6498 113.252
lradius 55.0579 0 0
lwrist 26.2692 0 0
lhand 40.7296 25.1023 0
lfingers 7.12502 0 0
lthumb 63.0179 35.4361 0
rclavicle -1.23505e-014 3.80589e-014 0
rhumerus 7.10076 -35.9751 1.76646
rradius 23.4118 0 0
rwrist -13.9453 0 0
rhand -41.2179 -52.337 0
rfingers 7.12502 0 0
rthumb -14.128 -802.315 0
956
root 1.03888 15.2222 32.7773 7.07509 -5.14972 365.161
lfemur 8.27106 -0.783568 4.87456
ltibia -0.705457 0 0
lfoot -30.8629 -14.8398 0
ltoes -34.5746 0 0
rfemur -31.7032 -14.6071 -8.28964
rtibia 46.5504 0 0
rfoot -21.8003 5.16218 0
rtoes -48.8423 0 0
lowerback -2.78796 -0.288228 0.635271
upperback -1.5325 -0.38029 -7.07638
thorax -0.0998123 -0.228866 -7.7557
lowerneck -6.73939 1.01527 4.65759
upperneck 1.21417 0.869352 3.20634
head 1.49023 0.53462 0.251499
lclavicle -1.20824e-014 3.61987e-014 0
lhumerus -59.547 -44.6824 113.312
lradius 55.0332 0 0
lwrist 26.2792 0 0
lhand 40.6519 25.1083 0
lfingers 7.12502 0 0
lthumb 62.9532 35.5232 0
rclavicle -1.20824e-014 3.61987e-014 0
rhumerus 7.17856 -35.7844 2.03835
rradius 23.2473 0 0
rwrist -13.88 0 0
rhand -41.0876 -52.2547 0
rfingers 7.12502 0 0
rthumb -14.002 -802.246 0
957
root 1.03337 15.2161 32.7705 7.04264 -5.22298 365.142
lfemur 8.39401 -0.76758 4.94953
ltibia -0.837116 0 0
lfoot -30.8832 -14.7759 0
ltoes -34.6867 0 0
rfemur -31.7705 -14.6448 -8.24054
rtibia 46.6065 0 0
rfoot -21.9152 5.24228 0
rtoes -48.8654 0 0
lowerback -2.76531 -0.288464 0.653401
upperback -1.51051 -0.380407 -7.04942
thorax -0.0899175 -0.228353 -7.73709
lowerneck -6.73324 1.04467 4.71902
upperneck 1.19539 0.904739 3.2038
head 1.48317 0.551992 0.24158
lclavicle -1.17885e-014 3.42585e-014 0
lhumerus -59.5269 -44.7116 113.372
lradius 55.0116 0 0
lwrist 26.2806 0 0
lhand 40.5646 25.109 0
lfingers 7.12502 0 0
lthumb 62.8802 35.6134 0
rclavicle -1.17885e-014 3.42585e-014 0
rhumerus 7.2241 -35.5552 2.25573
rradius 23.1376 0 0
rwrist -13.8092 0 0
rhand -40.9167 -52.1382 0
rfingers 7.12502 0 0
rthumb -13.8369 -802.141 0
958
root 1.02925 15.2105 32.7629 7.00427 -5.28212 365.119
lfemur 8.5 -0.735386 5.01371
ltibia -0.942394 0 0
lfoot -30.895 -14.7015 0
ltoes -34.7751 0 0
rfemur -31.8368 -14.682 -8.1857
rtibia 46.6834 0 0
rfoot -22.0172 5.30815 0
rtoes -48.8366 0 0
lowerback -2.73794 -0.289844 0.669569
upperback -1.48665 -0.382152 -7.01874
thorax -0.080658 -0.228599 -7.71336
lowerneck -6.72712 1.07032 4.77837
upperneck 1.1781 0.935203 3.20226
head 1.47684 0.566936 0.232117
lclavicle -1.14708e-014 3.22466e-014 0
lhumerus -59.5013 -44.7376 113.431
lradius 54.9929 0 0
lwrist 26.274 0 0
lhand 40.4683 25.1048 0
lfingers 7.12502 0 0
lthumb 62.7995 35.7064 0
rclavicle -1.14708e-014 3.22466e-014 0
rhumerus 7.23945 -35.2902 2.42195
rradius 23.0791 0 0
rwrist -13.7332 0 0
rhand -40.7079 -51.9898 0
rfingers 7.12502 0 0
rthumb -13.6354 -802.001 0
959
root 1.02643 15.2054 32.7546 6.96044 -5.328 365.093
lfemur 8.59006 -0.688215 5.06776
ltibia -1.02298 0 0
lfoot -30.8987 -14.6174 0
ltoes -34.8415 0 0
rfemur -31.9021 -14.7189 -8.12561
rtibia 46.7798 0 0
rfoot -22.1071 5.36067 0
rtoes -48.7595 0 0
lowerback -2.70623 -0.292276 0.683872
upperback -1.4611 -0.385394 -6.98466
thorax -0.0719953 -0.229544 -7.68488
lowerneck -6.72104 1.09245 4.83573
upperneck 1.16223 0.961029 3.20169
head 1.47123 0.579595 0.223089
lclavicle -1.11312e-014 3.01712e-014 0
lhumerus -59.4707 -44.7607 113.49
lradius 54.9771 0 0
lwrist 26.2601 0 0
lhand 40.364 25.096 0
lfingers 7.12502 0 0
lthumb 62.7119 35.8019 0
rclavicle -1.11312e-014 3.01712e-014 0
rhumerus 7.22665 -34.9924 2.54038
rradius 23.0684 0 0
rwrist -13.6526 0 0
rhand -40.4643 -51.8119 0
rfingers 7.12502 0 0
rthumb -13.4004 -801.83 0
960
root 1.02484 15.2008 32.7456 6.91158 -5.36147 365.064
lfemur 8.66522 -0.627297 5.11239
ltibia -1.08058 0 0
lfoot -30.8951 -14.5245 0
ltoes -34.8873 0 0
rfemur -31.9661 -14.7552 -8.06072
rtibia 46.894 0 0
rfoot -22.1856 5.40077 0
rtoes -48.6379 0 0
lowerback -2.67054 -0.295665 0.696404
upperback -1.434 -0.39 -6.94746
thorax -0.0638911 -0.231125 -7.65205
lowerneck -6.71504 1.11127 4.89117
upperneck 1.14775 0.982501 3.20201
head 1.46629 0.590109 0.21448
lclavicle -1.07717e-014 2.80406e-014 0
lhumerus -59.4356 -44.7811 113.549
lradius 54.9639 0 0
lwrist 26.2394 0 0
lhand 40.2522 25.0831 0
lfingers 7.12502 0 0
lthumb 62.6179 35.8996 0
rclavicle -1.07717e-014 2.80406e-014 0
rhumerus 7.18777 -34.6645 2.61436
rradius 23.1018 0 0
rwrist -13.5676 0 0
rhand -40.1887 -51.6069 0
rfingers 7.12502 0 0
rthumb -13.1346 -801.63 0
961
root 1.02437 15.1966 32.736 6.85817 -5.38339 365.033
lfemur 8.7265 -0.55386 5.14827
ltibia -1.11687 0 0
lfoot -30.8845 -14.4235 0
ltoes -34.9141 0 0
rfemur -32.029 -14.7911 -7.99152
rtibia 47.0243 0 0
rfoot -22.2534 5.42932 0
rtoes -48.4754 0 0
lowerback -2.63125 -0.29992 0.70726
upperback -1.40551 -0.395839 -6.90748
thorax -0.0563069 -0.233281 -7.61525
lowerneck -6.70913 1.12699 4.94476
upperneck 1.13457 0.999903 3.20316
head 1.46199 0.59862 0.206269
lclavicle -1.03945e-014 2.58629e-014 0
lhumerus -59.3963 -44.7991 113.607
lradius 54.9533 0 0
lwrist 26.2124 0 0
lhand 40.1339 25.0663 0
lfingers 7.12502 0 0
lthumb 62.5183 35.9991 0
rclavicle -1.03945e-014 2.58629e-014 0
rhumerus 7.12486 -34.3095 2.64724
rradius 23.1758 0 0
rwrist -13.4789 0 0
rhand -39.884 -51.3772 0
rfingers 7.12502 0 0
rthumb -12.841 -801.403 0
962
root 1.02494 15.1928 32.7259 6.80064 -5.39462 364.999
lfemur 8.77492 -0.469134 5.17609
ltibia -1.13356 0 0
lfoot -30.8677 -14.3153 0
ltoes -34.9236 0 0
rfemur -32.0905 -14.8266 -7.91847
rtibia 47.1692 0 0
rfoot -22.3113 5.44725 0
rtoes -48.2758 0 0
lowerback -2.58871 -0.304947 0.716535
upperback -1.3758 -0.402778 -6.865
thorax -0.0492042 -0.235951 -7.57486
lowerneck -6.70335 1.13983 4.99658
upperneck 1.12266 1.01352 3.20509
head 1.4583 0.605269 0.198439
lclavicle -1.00013e-014 2.36465e-014 0
lhumerus -59.3533 -44.8149 113.664
lradius 54.945 0 0
lwrist 26.1797 0 0
lhand 40.0097 25.0461 0
lfingers 7.12502 0 0
lthumb 62.4136 36.1003 0
rclavicle -1.00013e-014 2.36465e-014 0
rhumerus 7.03997 -33.93 2.64238
rradius 23.2871 0 0
rwrist -13.3867 0 0
rhand -39.5533 -51.1251 0
rfingers 7.12502 0 0
rthumb -12.5222 -801.152 0
963
root 1.02645 15.1893 32.7152 6.73944 -5.39601 364.963
lfemur 8.81152 -0.374347 5.19654
ltibia -1.13233 0 0
lfoot -30.8453 -14.2007 0
ltoes -34.9171 0 0
rfemur -32.1506 -14.8616 -7.84205
rtibia 47.327 0 0
rfoot -22.3601 5.45544 0
rtoes -48.0426 0 0
lowerback -2.54329 -0.310652 0.724323
upperback -1.34502 -0.410686 -6.82035
thorax -0.0425446 -0.239072 -7.53127
lowerneck -6.69772 1.15001 5.04671
upperneck 1.11196 1.02363 3.20773
head 1.45519 0.610197 0.190972
lclavicle -9.59439e-015 2.13996e-014 0
lhumerus -59.307 -44.8287 113.721
lradius 54.9388 0 0
lwrist 26.1419 0 0
lhand 39.8805 25.0228 0
lfingers 7.12502 0 0
lthumb 62.3046 36.2026 0
rclavicle -9.59439e-015 2.13996e-014 0
rhumerus 6.93515 -33.5291 2.60314
rradius 23.432 0 0
rwrist -13.2915 0 0
rhand -39.1993 -50.853 0
rfingers 7.12502 0 0
rthumb -12.1812 -800.88 0
